<?xml version="1.0" encoding="utf-8"?>
<!-- Generator: Adobe Illustrator 25.2.0, SVG Export Plug-In . SVG Version: 6.00 Build 0)  -->
<svg version="1.1" id="圖層_1" xmlns="http://www.w3.org/2000/svg" xmlns:xlink="http://www.w3.org/1999/xlink" x="0px" y="0px"
	 viewBox="0 0 42 42" style="enable-background:new 0 0 42 42;" xml:space="preserve">
<style type="text/css">
	.st0{clip-path:url(#SVGID_2_);}
	.st1{fill:none;stroke:#222C31;stroke-width:4;stroke-linecap:round;stroke-linejoin:round;}
</style>
<g>
	<defs>
		<rect id="SVGID_1_" width="42" height="42"/>
	</defs>
	<clipPath id="SVGID_2_">
		<use xlink:href="#SVGID_1_"  style="overflow:visible;"/>
	</clipPath>
	<g class="st0">
		<path class="st1" d="M1.5,37.5v-33c0-0.8,0.3-1.6,0.9-2.1s1.3-0.9,2.1-0.9H21h16.5c0.8,0,1.6,0.3,2.1,0.9s0.9,1.3,0.9,2.1v33
			c0,0.8-0.3,1.6-0.9,2.1s-1.3,0.9-2.1,0.9h-9V26.3h2.1c0.5,0,1-0.2,1.3-0.5c0.3-0.3,0.5-0.8,0.5-1.3v-2.3c0-0.5-0.2-1-0.5-1.3
			c-0.3-0.3-0.8-0.5-1.3-0.5h-2v-2.8c0-2.5,1.1-2.5,2.3-2.5h1.5c0.2,0,0.5,0,0.7-0.1s0.4-0.2,0.6-0.4c0.2-0.2,0.3-0.4,0.4-0.6
			c0.1-0.2,0.1-0.5,0.1-0.7v-2.2c0-0.2,0-0.5-0.1-0.7C34,10,33.9,9.8,33.7,9.6c-0.2-0.2-0.4-0.3-0.6-0.4C32.9,9.1,32.6,9,32.4,9H29
			c-1,0-2,0.1-2.9,0.5c-0.9,0.4-1.8,1-2.4,1.7c-0.7,0.7-1.2,1.6-1.5,2.6s-0.4,2-0.3,3v3.5h-1.9c-0.2,0-0.5,0-0.7,0.1
			c-0.2,0.1-0.4,0.2-0.6,0.4c-0.2,0.2-0.3,0.4-0.4,0.6C18,21.7,18,21.9,18,22.1v2.3c0,0.2,0,0.5,0.1,0.7c0.1,0.2,0.2,0.4,0.4,0.6
			c0.2,0.2,0.4,0.3,0.6,0.4c0.2,0.1,0.5,0.1,0.7,0.1h1.9v14.2H4.5c-0.8,0-1.6-0.3-2.1-0.9S1.5,38.3,1.5,37.5z"/>
	</g>
</g>
</svg>
