<svg width="24" height="24" viewBox="0 0 24 24" fill="none" xmlns="http://www.w3.org/2000/svg">
<path d="M19.4345 4.06494H4.56445C3.90141 4.06494 3.26553 4.32833 2.79669 4.79717C2.32785 5.26602 2.06445 5.9019 2.06445 6.56494V17.4349C2.06445 18.098 2.32785 18.7339 2.79669 19.2027C3.26553 19.6715 3.90141 19.9349 4.56445 19.9349H19.4345C20.0975 19.9349 20.7334 19.6715 21.2022 19.2027C21.6711 18.7339 21.9345 18.098 21.9345 17.4349V6.56494C21.9345 5.9019 21.6711 5.26602 21.2022 4.79717C20.7334 4.32833 20.0975 4.06494 19.4345 4.06494ZM4.56445 5.06494H19.4345C19.8129 5.06409 20.1775 5.20727 20.4542 5.46542C20.7309 5.72357 20.8991 6.07735 20.9245 6.45494C18.4545 7.77494 15.9745 9.08494 13.4945 10.4049C13.1595 10.6162 12.8044 10.7937 12.4345 10.9349C12.1444 10.9924 11.8454 10.9873 11.5574 10.9201C11.2694 10.8528 10.9991 10.7249 10.7645 10.5449C9.34445 9.79494 7.92445 9.03494 6.51445 8.28494C5.37445 7.68494 4.21445 7.07494 3.07445 6.46494C3.09741 6.08557 3.26447 5.72932 3.54145 5.46907C3.81843 5.20882 4.18439 5.06425 4.56445 5.06494ZM20.9345 17.4349C20.9345 17.8328 20.7764 18.2143 20.4951 18.4956C20.2138 18.7769 19.8323 18.9349 19.4345 18.9349H4.56445C4.16663 18.9349 3.7851 18.7769 3.50379 18.4956C3.22249 18.2143 3.06445 17.8328 3.06445 17.4349V7.59994C5.42445 8.83994 7.77445 10.0999 10.1345 11.3499C10.556 11.6087 11.0099 11.8104 11.4845 11.9499C12.1788 12.063 12.8906 11.9171 13.4845 11.5399C14.9345 10.7799 16.3745 10.0099 17.8245 9.24994C18.8645 8.68994 19.8945 8.14994 20.9345 7.59994V17.4349Z" fill="#DED1AC"/>
</svg>
